<?xml version="1.0" encoding="UTF-8"?>
<svg width="24px" height="24px" viewBox="0 0 24 24" version="1.1" xmlns="http://www.w3.org/2000/svg" xmlns:xlink="http://www.w3.org/1999/xlink">
    <title>icon_系统入口_默认</title>
    <g id="icon_系统入口_默认" stroke="none" stroke-width="1" fill="none" fill-rule="evenodd">
        <g id="ai238" transform="translate(3.000000, 3.000000)" fill="#B7B7B7" fill-rule="nonzero">
            <path d="M0,4.50037395 L4.50050517,4.50037395 L4.50050517,0 L0,0 L0,4.50037395 Z M6.74974743,17.9997901 L11.2502263,17.9997901 L11.2502263,13.4994162 L6.74974743,13.4994162 L6.74974743,17.9997901 Z M0,17.9997901 L4.50050517,17.9997901 L4.50050517,13.4994162 L0,13.4994162 L0,17.9997901 Z M0,11.2501476 L4.50050517,11.2501476 L4.50050517,6.74966873 L0,6.74966873 L0,11.2501476 Z M6.74974743,11.2501476 L11.2502263,11.2501476 L11.2502263,6.74966873 L6.74974743,6.74966873 L6.74974743,11.2501476 Z M13.4995211,4.50037395 L18,4.50037395 L18,0 L13.4995211,0 L13.4995211,4.50037395 Z M6.74974743,4.50037395 L11.2502263,4.50037395 L11.2502263,0 L6.74974743,0 L6.74974743,4.50037395 Z M13.4995211,11.2501476 L18,11.2501476 L18,6.74966873 L13.4995211,6.74966873 L13.4995211,11.2501476 Z M13.4995211,17.9997901 L18,17.9997901 L18,13.4994162 L13.4995211,13.4994162 L13.4995211,17.9997901 Z" id="形状"></path>
        </g>
    </g>
</svg>