<?xml version="1.0" encoding="UTF-8"?>
<svg width="16px" height="16px" viewBox="0 0 16 16" version="1.1" xmlns="http://www.w3.org/2000/svg" xmlns:xlink="http://www.w3.org/1999/xlink">
    <title>icon_首页_组件默认状态</title>
    <g id="icon_首页_组件默认状态" stroke="none" stroke-width="1" fill="none" fill-rule="evenodd">
        <rect id="矩形" fill="#D8D8D8" opacity="0" x="0" y="0" width="16" height="16"></rect>
        <g id="huodongzujian-22" transform="translate(1.000000, 1.300000)" fill="#999999" fill-rule="nonzero">
            <path d="M13.4422311,13.4422311 C13.3027888,13.4422311 13.1912351,13.3864542 13.0796813,13.3027888 L12.1035857,12.3824701 C12.0199203,12.2988048 11.9641434,12.187251 11.936255,12.0756972 C11.3784861,12.5498008 10.6533865,12.8286853 9.92828685,12.8286853 C8.19920319,12.8286853 6.80478088,11.4342629 6.80478088,9.70517928 C6.80478088,7.97609562 8.19920319,6.58167331 9.92828685,6.58167331 C11.6573705,6.58167331 13.0517928,7.97609562 13.0517928,9.70517928 C13.0517928,10.3187251 12.8844622,10.9043825 12.5219124,11.4342629 C12.6334661,11.4342629 12.7729084,11.4900398 12.8565737,11.5737052 L13.8326693,12.4940239 C13.9442231,12.6055777 14,12.7450199 14,12.8844622 C14,13.0239044 13.9442231,13.1633466 13.8605578,13.2749004 C13.7211155,13.3864542 13.5816733,13.4422311 13.4422311,13.4422311 L13.4422311,13.4422311 Z M9.87250996,7.66932271 C8.75697211,7.66932271 7.86454183,8.56175299 7.86454183,9.67729084 C7.86454183,10.7928287 8.75697211,11.685259 9.87250996,11.685259 C10.9880478,11.685259 11.8804781,10.7928287 11.8804781,9.67729084 C11.8804781,8.56175299 10.9880478,7.66932271 9.87250996,7.66932271 Z M1.03187251,12.5219124 C0.474103586,12.5219124 1.33226763e-15,12.0756972 1.33226763e-15,11.4900398 L1.33226763e-15,7.52988048 C1.33226763e-15,6.97211155 0.446215139,6.49800797 1.03187251,6.49800797 L4.99203187,6.49800797 C5.5498008,6.49800797 6.02390438,6.94422311 6.02390438,7.52988048 L6.02390438,11.4900398 C6.02390438,12.0478088 5.57768924,12.5219124 4.99203187,12.5219124 L1.03187251,12.5219124 Z M4.90836653,11.4063745 L4.90836653,7.61354582 L1.11553785,7.61354582 L1.11553785,11.4063745 L4.90836653,11.4063745 L4.90836653,11.4063745 Z M7.78087649,5.99601594 C7.22310757,5.99601594 6.74900398,5.5498008 6.74900398,4.96414343 L6.74900398,1.03187251 C6.74900398,0.474103586 7.19521912,0 7.78087649,0 L11.7410359,0 C12.2988048,0 12.7729084,0.446215139 12.7729084,1.03187251 L12.7729084,4.99203187 C12.7729084,5.5498008 12.3266932,6.02390438 11.7410359,6.02390438 L7.78087649,6.02390438 L7.78087649,5.99601594 Z M11.6573705,4.88047809 L11.6573705,1.11553785 L7.89243028,1.11553785 L7.89243028,4.90836653 L11.6573705,4.90836653 L11.6573705,4.88047809 Z M1.03187251,5.99601594 C0.474103586,5.99601594 0,5.5498008 0,4.96414343 L0,1.03187251 C0,0.474103586 0.446215139,0 1.03187251,0 L4.99203187,0 C5.5498008,0 6.02390438,0.446215139 6.02390438,1.03187251 L6.02390438,4.99203187 C6.02390438,5.5498008 5.57768924,6.02390438 4.99203187,6.02390438 L1.03187251,6.02390438 L1.03187251,5.99601594 Z M4.90836653,4.88047809 L4.90836653,1.11553785 L1.11553785,1.11553785 L1.11553785,4.90836653 L4.90836653,4.90836653 L4.90836653,4.88047809 Z" id="形状"></path>
        </g>
    </g>
</svg>