<?xml version="1.0" standalone="no"?><!DOCTYPE svg PUBLIC "-//W3C//DTD SVG 1.1//EN" "http://www.w3.org/Graphics/SVG/1.1/DTD/svg11.dtd"><svg t="1701400811959" class="icon" viewBox="0 0 1228 1024" version="1.1" xmlns="http://www.w3.org/2000/svg" p-id="10302" xmlns:xlink="http://www.w3.org/1999/xlink" width="239.84375" height="200"><path d="M146.5344 568.1664a467.3536 467.3536 0 0 1 12.2368-181.76 464.896 464.896 0 0 1 218.0096-284.16A465.2544 465.2544 0 0 1 731.904 55.552a467.456 467.456 0 0 1 163.5328 80.256l29.7472-17.152C768.8704-7.4752 544.768-31.9744 360.704 74.2912c-184.064 106.24-274.944 312.6272-243.9168 511.0272l29.7728-17.1776zM1076.5312 461.184a467.712 467.712 0 0 1-13.7728 167.424 464.896 464.896 0 0 1-218.0352 284.16 464.9728 464.9728 0 0 1-355.072 46.7456 467.5072 467.5072 0 0 1-151.8848-71.808l-30.336 17.5104c87.6288 66.6368 194.9952 102.4 304.1792 102.4 84.7872 0 170.6752-21.5552 249.2672-66.9184 179.712-103.7568 270.6688-302.976 245.9648-497.024l-30.3104 17.5104z" fill="#2c2c2c" p-id="10303"></path><path d="M425.472 236.032c-2.56 3.4304-6.8096 2.9696-8.6016-0.896l-11.3408-24.4992-25.4976-8.704c-4.0448-1.408-4.9152-5.5808-1.792-8.4992l19.712-18.2784 0.3584-26.9568c0.0512-4.2752 3.7632-6.4 7.5008-4.3264l23.5264 13.184 25.7024-7.936c4.096-1.28 7.2448 1.5872 6.4 5.7856l-5.1712 26.4448 15.5648 22.0416c2.4576 3.5072 0.7168 7.424-3.5328 7.936l-26.7264 3.1488-16.128 21.5552zM799.488 883.84c-2.56 3.4048-6.8096 2.9696-8.6016-0.9216l-11.3408-24.4736-25.4976-8.7296c-4.0448-1.3824-4.9152-5.5808-1.792-8.4736l19.712-18.304 0.3584-26.9568c0.0512-4.2752 3.7632-6.4 7.4752-4.3008l23.5264 13.184 25.7024-7.936c4.096-1.28 7.2704 1.5872 6.4512 5.76l-5.2224 26.4704 15.5648 22.016c2.4832 3.5328 0.7424 7.424-3.5072 7.936l-26.7264 3.1488-16.128 21.5808zM303.1296 391.552c-0.128 4.2752-3.8656 6.3488-7.552 4.1984l-23.3216-13.568-25.9072 7.4752c-4.096 1.1776-7.2192-1.7408-6.3232-5.888l5.6576-26.3168-15.1808-22.272c-2.4064-3.5584-0.5888-7.424 3.6608-7.8336l26.8288-2.688 16.512-21.248c2.6112-3.3792 6.8608-2.8672 8.576 1.024l10.9056 24.6528 25.3952 9.1392c4.0448 1.4592 4.864 5.632 1.664 8.4992l-20.096 17.92-0.8192 26.9056zM981.0688 707.6864c-0.128 4.2496-3.8912 6.3232-7.5776 4.1728l-23.296-13.568-25.9072 7.5008c-4.096 1.1776-7.2448-1.7664-6.3488-5.9136l5.6832-26.2912-15.1808-22.272c-2.4064-3.5584-0.5888-7.424 3.6608-7.8592l26.8032-2.688 16.512-21.248c2.6368-3.3792 6.8864-2.8672 8.6016 1.0752l10.9056 24.6272 25.3952 9.1392c4.0192 1.4336 4.864 5.632 1.664 8.4736l-20.096 17.92-0.8192 26.9312zM578.304 835.1744c4.1728-0.9984 7.1168 2.0992 6.016 6.2208l-7.0912 26.0352 13.952 23.0912c2.2016 3.6352 0.1792 7.424-4.0704 7.6288l-26.88 1.3312-17.5872 20.4288c-2.7904 3.2512-7.0144 2.5088-8.5248-1.4848l-9.5232-25.216-24.8064-10.4448c-3.9424-1.664-4.5312-5.888-1.2032-8.576l20.992-16.9216 2.2528-26.88c0.3584-4.3008 4.1984-6.144 7.7568-3.8144l22.528 14.7712 26.1888-6.1696zM708.1984 98.5344c4.1728-0.9984 7.1168 2.0992 6.016 6.2208l-7.0912 26.0352 13.952 23.0656c2.2016 3.6608 0.1792 7.424-4.0704 7.6544l-26.88 1.3312-17.5872 20.4288c-2.816 3.2256-7.0144 2.5088-8.5248-1.5104l-9.5232-25.216-24.832-10.4448c-3.9168-1.6384-4.5056-5.888-1.1776-8.576l20.992-16.896 2.2272-26.9056c0.3584-4.2752 4.1984-6.144 7.7824-3.7888l22.528 14.7712 26.1888-6.1696zM378.88 433.9968a241.5104 241.5104 0 0 1 110.2592-137.1648 241.8432 241.8432 0 0 1 121.2416-32.7168c17.5104 0 35.0976 2.048 52.5568 5.888l41.6-24.0384a277.4528 277.4528 0 0 0-232.7808 20.7616 276.1984 276.1984 0 0 0-134.5536 191.3344l41.6768-24.064zM835.6352 600.2688a241.408 241.408 0 0 1-103.2448 117.9136 241.408 241.408 0 0 1-153.728 30.464l-44.7232 25.8048a276.3776 276.3776 0 0 0 215.8592-26.1632 277.1968 277.1968 0 0 0 130.6112-173.8752l-44.8 25.856z" fill="#2c2c2c" p-id="10304"></path><path d="M1041.8432 62.72c-12.6464 0-25.4464 3.2256-37.1712 9.984L37.248 631.2448A74.4704 74.4704 0 0 0 9.984 732.9792l111.7184 193.4848a74.4448 74.4448 0 0 0 101.7344 27.264l967.424-558.5408a74.496 74.496 0 0 0 27.264-101.7344l-111.7184-193.4848a74.4704 74.4704 0 0 0-64.5632-37.248m0 29.7728c15.9744 0 30.8224 8.576 38.7584 22.3744l111.7184 193.4592a44.7488 44.7488 0 0 1-16.3584 61.056L208.5376 927.9232a44.6208 44.6208 0 0 1-61.056-16.3584L35.7888 718.08a44.7232 44.7232 0 0 1 16.3584-61.0304l967.424-558.5408a44.544 44.544 0 0 1 22.272-6.016" fill="#2c2c2c" p-id="10305"></path><path d="M299.0592 784.2304c18.2016-10.5216 29.184-24.704 32.9216-42.496 3.4816-17.2288-0.0512-34.944-10.5728-53.1456-10.7008-18.56-24.32-30.5408-40.832-35.8912-17.3568-5.7856-35.1488-3.4304-53.376 7.0912-18.432 10.6496-29.3376 24.9344-32.7168 42.8288-3.4304 17.024 0.128 34.7136 10.7264 53.0432 10.496 18.2272 24.0128 30.1056 40.4736 35.6608 17.3568 5.7856 35.1488 3.4048 53.376-7.0912z m-9.2928-16.128c-12.6464 7.3216-24.9856 8.7808-37.0432 4.4032-11.4944-4.4032-21.248-13.5168-29.2352-27.392-8.1408-14.08-11.2128-27.136-9.216-39.168 1.9712-12.6208 9.3696-22.6304 22.2464-30.0544 12.8512-7.424 25.088-8.96 36.6592-4.608 11.6736 4.4288 21.6064 13.7472 29.7984 27.9552 8.192 14.1824 11.2384 27.3408 9.1392 39.424-2.176 12.288-9.6256 22.0928-22.3488 29.44z m138.7264-61.7472l-26.1888-144.512-19.7888 11.4176 23.424 118.8352-0.512 0.2816-91.3408-79.616-19.7888 11.4176 112.0512 94.976 22.144-12.8z m144.384-83.3536l-9.0112-15.616-70.6048 40.7808-21.9648-38.0672 63.7184-36.7872-9.0112-15.616-63.7184 36.8128-20.1216-34.8928 67.7376-39.1168-9.0112-15.5904-86.016 49.664 69.12 119.7312 88.8832-51.3024z m36.864-21.2992l-28.544-49.4592 32.3584-18.688c6.9376-4.0192 13.056-5.5808 18.2784-4.7616 5.376 1.0752 10.2912 4.6592 14.72 10.752l10.112 14.0544c4.6848 6.5536 9.4464 10.8032 14.3104 12.7488l19.7888-11.4176c-6.5536-2.048-12.288-6.5536-17.2288-13.5424l-13.056-17.9456c-8.0896-10.9568-18.1504-14.5664-30.1312-10.752l-0.1792-0.3584c5.632-5.4784 8.7808-12.0064 9.472-19.5584 0.512-6.8608-1.024-13.4144-4.6336-19.6864-6.528-11.264-15.2064-17.8176-26.0864-19.584-10.0864-1.4848-21.2736 1.3312-33.5872 8.448l-52.992 30.5664 69.12 119.7312 18.304-10.5472z m-5.1712-83.7632l-32.384 18.688-22.528-39.0656 32.1792-18.5856c8.3712-4.864 15.4368-6.8352 21.1456-5.9648 5.632 0.9472 10.3168 4.7104 14.1312 11.3152 3.6864 6.3744 4.5312 12.3648 2.56 17.9712-2.1504 5.8624-7.168 11.0592-15.104 15.6416z m146.2272 2.3296c19.2-11.0848 30.7712-24.9088 34.6368-41.472 3.5328-16.0512-0.0768-33.408-10.8544-52.0704-10.9824-19.0208-24.064-30.8224-39.2704-35.4816-16.3072-5.0176-34.0736-1.9968-53.3248 9.1136l-43.5968 25.1648 69.12 119.7312 43.264-24.9856z m-12.3648-13.6448l-21.632 12.4928-51.1232-88.5504 21.9648-12.672c15.104-8.704 28.2368-11.52 39.424-8.448 10.9312 3.2256 20.7872 12.4416 29.568 27.648 8.6528 14.976 11.5968 28.0832 8.8832 39.3472-2.8672 11.3408-11.8784 21.4016-27.0848 30.1824z m140.1344-56.9856c15.5392-8.96 25.344-20.0704 29.3376-33.28 3.84-13.2352 1.28-27.6224-7.7056-43.1616l-42.8032-74.112-18.2784 10.5472 43.008 74.4704c6.1184 10.5984 8.2432 19.968 6.3488 28.0576-1.9968 8.1664-8.3712 15.36-19.0976 21.5296-10.8288 6.272-20.3008 8.2176-28.3648 5.888-7.808-2.2016-14.848-8.704-21.12-19.5584l-43.008-74.4704-18.2528 10.5728 42.8032 74.112c8.96 15.5392 20.224 24.9856 33.792 28.3392 13.0304 3.2 27.4688 0.2304 43.3408-8.96z m160.3072-95.6928l-9.0112-15.5904-70.5792 40.7552-21.9904-38.0672 63.744-36.7872-9.0112-15.616-63.744 36.8128-20.1216-34.8672 67.7376-39.1168-9.0112-15.616-86.016 49.664 69.12 119.7568 88.8832-51.328z" fill="#2c2c2c" p-id="10306"></path></svg>