<?xml version="1.0" encoding="UTF-8"?>
<svg width="16px" height="16px" viewBox="0 0 16 16" version="1.1" xmlns="http://www.w3.org/2000/svg" xmlns:xlink="http://www.w3.org/1999/xlink">
    <title>切片</title>
    <g id="P1-确认版" stroke="none" stroke-width="1" fill="none" fill-rule="evenodd">
        <g id="组件开发-组件-筛选无数据状态" transform="translate(-1162.000000, -98.000000)">
            <g id="编组-20" transform="translate(1006.000000, 90.000000)">
                <g id="编组" transform="translate(156.000000, 8.000000)">
                    <rect id="矩形" fill="#D8D8D8" opacity="0" x="0" y="0" width="16" height="16"></rect>
                    <path d="M7,1.33333333 C10.1296136,1.33333333 12.6666667,3.87038642 12.6666667,7 C12.6666667,8.3248114 12.2120386,9.54343873 11.450284,10.5083805 L14.4714045,13.5285955 C14.731754,13.788945 14.731754,14.211055 14.4714045,14.4714045 C14.211055,14.731754 13.788945,14.731754 13.5285955,14.4714045 L13.5285955,14.4714045 L10.5083805,11.450284 C9.54343873,12.2120386 8.3248114,12.6666667 7,12.6666667 C3.87038642,12.6666667 1.33333333,10.1296136 1.33333333,7 C1.33333333,3.87038642 3.87038642,1.33333333 7,1.33333333 Z M7,2.66666667 C4.60676608,2.66666667 2.66666667,4.60676608 2.66666667,7 C2.66666667,9.39323392 4.60676608,11.3333333 7,11.3333333 C8.18663267,11.3333333 9.26186425,10.8563686 10.044438,10.0836958 L10.0619288,10.0619288 C10.068516,10.0553417 10.0752067,10.0489212 10.0819957,10.0426673 C10.8563686,9.26186425 11.3333333,8.18663267 11.3333333,7 C11.3333333,4.60676608 9.39323392,2.66666667 7,2.66666667 Z" id="Combined-Shape" fill="#BFBFBF"></path>
                </g>
            </g>
        </g>
    </g>
</svg>